<svg width="156" height="60" viewBox="0 0 156 60" fill="none" xmlns="http://www.w3.org/2000/svg">
<path d="M54.2668 43.4453H54.9329L57.1068 47.6426L59.2806 43.4453H59.9467V49.4633H59.2806V44.9177L57.1068 49.115L54.9329 44.9177V49.4633H54.2668V43.4453Z" fill="white"></path>
<path d="M61.8584 46.9682V43.4453H62.5245V46.9682C62.5245 48.1243 63.2651 48.947 64.3064 48.947C65.3476 48.947 66.0883 48.1243 66.0883 46.9682V43.4453H66.7544V46.9682C66.7544 48.4924 65.7396 49.5696 64.3064 49.5696C62.8732 49.5696 61.8584 48.4924 61.8584 46.9682Z" fill="white"></path>
<path d="M72.3046 48.8161V49.4633H68.4426V43.4453H69.1087V48.8161H72.307H72.3046Z" fill="white"></path>
<path d="M75.094 44.0945H73.1245V43.4473H77.7295V44.0945H75.7601V49.4653H75.094V44.0945Z" fill="white"></path>
<path d="M79.1626 43.4453H79.8287V49.4633H79.1626V43.4453Z" fill="white"></path>
<path d="M81.678 43.4453H82.3441L84.5179 47.6426L86.6918 43.4453H87.3579V49.4633H86.6918V44.9177L84.5179 49.115L82.3441 44.9177V49.4633H81.678V43.4453Z" fill="white"></path>
<path d="M88.9812 46.4521C88.9812 44.7623 90.3639 43.3418 91.9823 43.3418C93.6006 43.3418 94.9761 44.7598 94.9761 46.4521C94.9761 48.1444 93.6127 49.5698 91.9823 49.5698C90.3519 49.5698 88.9812 48.1419 88.9812 46.4521ZM94.3004 46.4521C94.3004 45.1106 93.2423 43.9718 91.9799 43.9718C90.7174 43.9718 89.6521 45.1106 89.6521 46.4521C89.6521 47.7935 90.7174 48.9398 91.9799 48.9398C93.2423 48.9398 94.3004 47.801 94.3004 46.4521Z" fill="white"></path>
<path d="M96.5967 43.4453H98.5758C100.435 43.4453 101.748 44.6904 101.748 46.4494C101.748 48.2083 100.435 49.4633 98.5758 49.4633H96.5967V43.4453ZM98.5758 48.8433C100.043 48.8433 101.074 47.8526 101.074 46.4519C101.074 45.0511 100.043 44.0679 98.5758 44.0679H97.2628V48.8433H98.5758Z" fill="white"></path>
<path d="M107.069 48.0972H103.804L103.215 49.4633H102.491L105.076 43.4453H105.8L108.385 49.4633H107.661L107.072 48.0972H107.069ZM106.798 47.4499L105.441 44.2877L104.078 47.4499H106.798Z" fill="white"></path>
<path d="M113.475 48.8161V49.4633H109.614V43.4453H110.28V48.8161H113.478H113.475Z" fill="white"></path>
<path d="M121.841 48.0972H118.576L117.987 49.4633H117.263L119.848 43.4453H120.572L123.157 49.4633H122.433L121.844 48.0972H121.841ZM121.57 47.4499L120.213 44.2877L118.85 47.4499H121.57Z" fill="white"></path>
<path d="M124.479 43.4453H125.145V49.4633H124.479V43.4453Z" fill="white"></path>
<path d="M129.842 43.4453H130.508L132.682 47.6426L134.856 43.4453H135.522V49.4633H134.856V44.9177L132.682 49.115L130.508 44.9177V49.4633H129.842V43.4453Z" fill="white"></path>
<path d="M141.553 48.0972H138.287L137.698 49.4633H136.974L139.559 43.4453H140.283L142.868 49.4633H142.144L141.555 48.0972H141.553ZM141.279 47.4499L139.922 44.2877L138.559 47.4499H141.279Z" fill="white"></path>
<path d="M144.316 43.4453H146.295C148.154 43.4453 149.467 44.6904 149.467 46.4494C149.467 48.2083 148.154 49.4633 146.295 49.4633H144.316V43.4453ZM146.295 48.8433C147.762 48.8433 148.793 47.8526 148.793 46.4519C148.793 45.0511 147.762 44.0679 146.295 44.0679H144.982V48.8433H146.295Z" fill="white"></path>
<path d="M151.737 44.095V46.0739H154.918V46.7211H151.737V48.8161H155.267V49.4633H151.063V43.4453H155.267V44.0926H151.737V44.095Z" fill="white"></path>
<path d="M54.1394 53.8789H54.8055V59.8969H54.1394V53.8789Z" fill="white"></path>
<path d="M56.6548 53.8789H57.3209L60.9544 58.7753V53.8789H61.6205V59.8969H60.9544L57.3209 55.0005V59.8969H56.6548V53.8789Z" fill="white"></path>
<path d="M66.9924 54.5247V56.5036H70.1738V57.1508H66.9924V59.2458H70.5225V59.893H66.3191V53.875H70.5225V54.5223H66.9924V54.5247Z" fill="white"></path>
<path d="M72.1025 57.3979V53.875H72.7686V57.3979C72.7686 58.554 73.5093 59.3767 74.5505 59.3767C75.5918 59.3767 76.3324 58.554 76.3324 57.3979V53.875H76.9985V57.3979C76.9985 58.9221 75.9837 59.9992 74.5505 59.9992C73.1173 59.9992 72.1025 58.9221 72.1025 57.3979Z" fill="white"></path>
<path d="M81.7214 57.6711L83.2388 59.8969H82.4789L80.9952 57.7328H79.4442V59.8969H78.7781V53.8789H81.1563C82.3683 53.8789 83.3133 54.6769 83.3133 55.8059C83.3133 56.752 82.6472 57.4709 81.719 57.6711H81.7214ZM79.4442 57.0856H81.0385C81.9932 57.0856 82.6424 56.6137 82.6424 55.8059C82.6424 54.998 81.9956 54.5262 81.0385 54.5262H79.4442V57.0831V57.0856Z" fill="white"></path>
<path d="M84.4675 56.8818C84.4675 55.192 85.8502 53.7715 87.4686 53.7715C89.087 53.7715 90.4624 55.1895 90.4624 56.8818C90.4624 58.574 89.099 59.9995 87.4686 59.9995C85.8382 59.9995 84.4675 58.5716 84.4675 56.8818ZM89.7891 56.8818C89.7891 55.5403 88.7311 54.4015 87.4686 54.4015C86.2061 54.4015 85.1408 55.5403 85.1408 56.8818C85.1408 58.2232 86.2061 59.3695 87.4686 59.3695C88.7311 59.3695 89.7891 58.2306 89.7891 56.8818Z" fill="white"></path>
<path d="M91.9582 53.8789H94.3365C95.5484 53.8789 96.4935 54.6769 96.4935 55.8059C96.4935 56.9349 95.546 57.7328 94.3365 57.7328H92.6219V59.8969H91.9558V53.8789H91.9582ZM94.2162 57.0856C95.1709 57.0856 95.8202 56.6137 95.8202 55.8059C95.8202 54.998 95.1709 54.5262 94.2162 54.5262H92.6219V57.0831H94.2162V57.0856Z" fill="white"></path>
<path d="M98.499 54.5247V56.5036H101.68V57.1508H98.499V59.2458H102.029V59.893H97.8257V53.875H102.029V54.5223H98.499V54.5247Z" fill="white"></path>
<path d="M27.8993 31.6357C24.6145 31.6357 20.8993 30.5734 17.2561 27.5076C16.2462 28.177 15.152 28.8515 13.9713 29.5284C13.3846 29.8817 10.648 31.3392 7.2646 30.309C4.27796 29.3999 1.83238 26.9048 0 22.8927L5.38653 20.2938C6.43257 22.5815 7.64454 24.0119 8.89258 24.4269C9.99393 24.7925 10.939 24.2663 10.9775 24.2441L11.0929 24.1626L11.04 24.207C11.7638 23.792 12.4588 23.372 13.1249 22.9496C12.1101 21.0325 11.3141 18.2063 11.6099 14.1671C11.6436 13.5347 12.074 7.34373 15.8446 3.99627C17.5639 2.46953 19.7161 1.77533 22.0824 1.95567C24.944 2.17307 27.8104 4.74481 28.7362 8.34179C29.561 11.5435 29.4456 17.2132 22.2387 23.6932C28.123 27.6533 33.0694 24.0415 33.3051 23.8636L36.8208 28.7971C34.9692 30.1905 31.7252 31.6357 27.8969 31.6357H27.8993ZM21.3225 8.04039C20.6852 8.04039 20.1875 8.22568 19.7402 8.62342C18.2565 9.94264 17.6241 13.1938 17.5519 14.5624C17.3932 16.7586 17.6697 18.2804 18.0449 19.3057C21.5004 16.2546 22.9432 13.2185 23.1092 10.6344C23.2775 8.04039 21.4355 8.04039 21.3225 8.04039Z" fill="white"></path>
<path d="M39.8386 26.7006C41.6328 26.7006 43.0873 25.2063 43.0873 23.363C43.0873 21.5197 41.6328 20.0254 39.8386 20.0254C38.0444 20.0254 36.5898 21.5197 36.5898 23.363C36.5898 25.2063 38.0444 26.7006 39.8386 26.7006Z" fill="white"></path>
<path d="M70.1185 24.3334L73.8963 28.2985C72.0278 30.302 68.4111 31.6385 65.3235 31.6385C59.0665 31.6385 54.1921 26.9224 54.1921 20.2868C54.1921 13.6512 58.8645 9.05859 64.9989 9.05859C71.5805 9.05859 75.4401 14.1922 75.4401 22.3299H60.2856C60.9758 24.6669 62.8034 26.2529 65.2826 26.2529C66.9491 26.2529 68.9786 25.4599 70.1161 24.3334H70.1185ZM60.3674 17.9473H69.753C69.183 15.8177 67.6392 14.4417 65.2441 14.4417C63.0102 14.4417 61.1417 15.7782 60.3698 17.9473H60.3674Z" fill="white"></path>
<path d="M80.478 1.96094H86.4104V31.1345H80.478V1.96094Z" fill="white"></path>
<path d="M92.5833 1.96094H98.5157V31.1345H92.5833V1.96094Z" fill="white"></path>
<path d="M104.405 3.25606C104.405 1.54403 105.826 0 107.656 0C109.486 0 110.825 1.54403 110.825 3.25606C110.825 5.0916 109.404 6.59611 107.656 6.59611C105.908 6.59611 104.405 5.09407 104.405 3.25606ZM104.65 9.55818H110.582V31.1351H104.65V9.55818Z" fill="white"></path>
<path d="M115.577 20.3268C115.577 14.1927 120.817 9.05664 127.074 9.05664C133.331 9.05664 138.489 14.1902 138.489 20.3268C138.489 26.4634 133.29 31.6366 127.074 31.6366C120.858 31.6366 115.577 26.461 115.577 20.3268ZM132.843 20.3268C132.843 16.9868 130.202 14.1927 127.074 14.1927C123.945 14.1927 121.264 16.9893 121.264 20.3268C121.264 23.6644 123.904 26.503 127.074 26.503C130.243 26.503 132.843 23.6644 132.843 20.3268Z" fill="white"></path>
<path d="M156 29.7584C154.781 30.8849 152.871 31.6359 151.164 31.6359C147.468 31.6359 144.866 28.9233 144.866 25.0423V14.4836H141.98V9.55747H144.866V3.63086H150.553V9.55747H155.103V14.4836H150.553V24.0837C150.553 25.5018 151.448 26.5048 152.544 26.5048C153.357 26.5048 154.17 26.2133 154.576 25.7957L155.997 29.7608L156 29.7584Z" fill="white"></path>
</svg>