<?xml version="1.0" encoding="UTF-8"?>
<svg id="Camada_1" data-name="Camada 1" xmlns="http://www.w3.org/2000/svg" viewBox="0 0 787.5 352.63">
  <defs>
    <style>
      .cls-1 {
        fill: #2109d1;
      }
    </style>
  </defs>
  <g>
    <path class="cls-1" d="M282.03,240.39h2.5l8.19,15.38,8.19-15.38h2.5v22.05h-2.5v-16.66l-8.19,15.38-8.19-15.38v16.66h-2.5v-22.05Z"/>
    <path class="cls-1" d="M310.61,253.29v-12.91h2.5v12.91c0,4.24,2.79,7.26,6.71,7.26s6.71-3.02,6.71-7.26v-12.91h2.5v12.91c0,5.59-3.82,9.53-9.21,9.53s-9.21-3.95-9.21-9.53Z"/>
    <path class="cls-1" d="M349.94,260.07v2.38h-14.54v-22.05h2.5v19.68h12.04Z"/>
    <path class="cls-1" d="M360.44,242.76h-7.42v-2.38h17.34v2.38h-7.42v19.68h-2.5v-19.68Z"/>
    <path class="cls-1" d="M375.76,240.39h2.5v22.05h-2.5v-22.05Z"/>
    <path class="cls-1" d="M385.23,240.39h2.5l8.19,15.38,8.19-15.38h2.5v22.05h-2.5v-16.66l-8.19,15.38-8.19-15.38v16.66h-2.5v-22.05Z"/>
    <path class="cls-1" d="M412.71,251.4c0-6.2,5.2-11.4,11.3-11.4s11.27,5.2,11.27,11.4-5.14,11.43-11.27,11.43-11.3-5.23-11.3-11.43ZM432.75,251.4c0-4.91-3.98-9.09-8.73-9.09s-8.76,4.17-8.76,9.09,4.01,9.12,8.76,9.12,8.73-4.17,8.73-9.12Z"/>
    <path class="cls-1" d="M441.39,240.39h7.45c7,0,11.94,4.56,11.94,11.01s-4.94,11.04-11.94,11.04h-7.45v-22.05ZM448.84,260.16c5.52,0,9.41-3.63,9.41-8.76s-3.88-8.73-9.41-8.73h-4.94v17.5h4.94Z"/>
    <path class="cls-1" d="M480.81,257.44h-12.3l-2.21,5.01h-2.73l9.73-22.05h2.73l9.73,22.05h-2.73l-2.21-5.01ZM479.79,255.06l-5.1-11.59-5.14,11.59h10.24Z"/>
    <path class="cls-1" d="M504.93,260.07v2.38h-14.54v-22.05h2.5v19.68h12.04Z"/>
    <path class="cls-1" d="M536.43,257.44h-12.3l-2.21,5.01h-2.73l9.73-22.05h2.73l9.73,22.05h-2.73l-2.21-5.01ZM535.4,255.06l-5.1-11.59-5.14,11.59h10.24Z"/>
    <path class="cls-1" d="M546.35,240.39h2.5v22.05h-2.5v-22.05Z"/>
    <path class="cls-1" d="M566.55,240.39h2.5l8.19,15.38,8.19-15.38h2.5v22.05h-2.5v-16.66l-8.19,15.38-8.19-15.38v16.66h-2.5v-22.05Z"/>
    <path class="cls-1" d="M610.63,257.44h-12.3l-2.21,5.01h-2.73l9.73-22.05h2.73l9.73,22.05h-2.73l-2.21-5.01ZM609.6,255.06l-5.1-11.59-5.14,11.59h10.24Z"/>
    <path class="cls-1" d="M621.03,240.39h7.45c7,0,11.94,4.56,11.94,11.01s-4.94,11.04-11.94,11.04h-7.45v-22.05ZM628.48,260.16c5.52,0,9.41-3.63,9.41-8.76s-3.88-8.73-9.41-8.73h-4.94v17.5h4.94Z"/>
    <path class="cls-1" d="M648.97,242.76v7.26h11.97v2.38h-11.97v7.67h13.29v2.38h-15.83v-22.05h15.83v2.38h-13.29Z"/>
    <path class="cls-1" d="M281.55,278.61h2.5v22.05h-2.5v-22.05Z"/>
    <path class="cls-1" d="M291.02,278.61h2.5l13.68,17.95v-17.95h2.5v22.05h-2.5l-13.68-17.95v17.95h-2.5v-22.05Z"/>
    <path class="cls-1" d="M329.94,280.99v7.26h11.97v2.38h-11.97v7.67h13.29v2.38h-15.83v-22.05h15.83v2.38h-13.29Z"/>
    <path class="cls-1" d="M349.17,291.52v-12.91h2.5v12.91c0,4.24,2.79,7.26,6.71,7.26s6.71-3.02,6.71-7.26v-12.91h2.5v12.91c0,5.59-3.82,9.53-9.21,9.53s-9.21-3.95-9.21-9.53Z"/>
    <path class="cls-1" d="M385.39,292.51l5.71,8.15h-2.86l-5.59-7.93h-5.84v7.93h-2.5v-22.05h8.96c4.56,0,8.12,2.92,8.12,7.06,0,3.47-2.5,6.1-6,6.84ZM376.82,290.36h6c3.6,0,6.04-1.73,6.04-4.69s-2.44-4.69-6.04-4.69h-6v9.37Z"/>
    <path class="cls-1" d="M395.73,289.63c0-6.2,5.2-11.4,11.3-11.4s11.27,5.2,11.27,11.4-5.14,11.43-11.27,11.43-11.3-5.23-11.3-11.43ZM415.76,289.63c0-4.91-3.98-9.09-8.73-9.09s-8.76,4.17-8.76,9.09,4.01,9.12,8.76,9.12,8.73-4.17,8.73-9.12Z"/>
    <path class="cls-1" d="M423.92,278.61h8.96c4.56,0,8.12,2.92,8.12,7.06s-3.56,7.06-8.12,7.06h-6.45v7.93h-2.5v-22.05ZM432.43,290.36c3.59,0,6.03-1.73,6.03-4.69s-2.44-4.69-6.03-4.69h-6v9.37h6Z"/>
    <path class="cls-1" d="M448.55,280.99v7.26h11.97v2.38h-11.97v7.67h13.29v2.38h-15.83v-22.05h15.83v2.38h-13.29Z"/>
  </g>
  <g>
    <path class="cls-1" d="M182.77,197.11c-12.36,0-26.35-3.89-40.06-15.13-3.8,2.45-7.92,4.93-12.36,7.41-2.21,1.29-12.51,6.64-25.25,2.86-11.25-3.34-20.45-12.48-27.35-27.18l20.28-9.52c3.94,8.39,8.5,13.62,13.2,15.14,4.15,1.34,7.7-.59,7.85-.67l.43-.3-.2.16c2.72-1.52,5.34-3.06,7.85-4.61-3.82-7.02-6.81-17.38-5.7-32.19.12-2.32,1.75-25,15.94-37.27,6.47-5.6,14.58-8.14,23.49-7.48,10.78.8,21.57,10.22,25.05,23.4,3.11,11.73,2.67,32.51-24.46,56.25,22.15,14.51,40.78,1.27,41.66.63l13.23,18.08c-6.97,5.11-19.18,10.4-33.59,10.4ZM158,110.65c-2.4,0-4.27.68-5.96,2.14-5.59,4.83-7.96,16.75-8.24,21.77-.6,8.04.45,13.62,1.86,17.38,13.01-11.18,18.44-22.31,19.06-31.78.63-9.51-6.3-9.51-6.73-9.51ZM159.55,110.65h0Z"/>
    <circle class="cls-1" cx="227.71" cy="166.79" r="12.23"/>
  </g>
  <g>
    <path class="cls-1" d="M341.7,170.35l14.22,14.53c-7.04,7.34-20.65,12.24-32.27,12.24-23.55,0-41.91-17.28-41.91-41.6s17.59-41.14,40.68-41.14c24.78,0,39.31,18.81,39.31,48.64h-57.05c2.6,8.56,9.48,14.38,18.81,14.38,6.27,0,13.92-2.91,18.2-7.04ZM305,146.95h35.33c-2.14-7.8-7.95-12.85-16.98-12.85-8.41,0-15.45,4.89-18.35,12.85Z"/>
    <path class="cls-1" d="M380.7,88.37h22.33v106.91h-22.33v-106.91Z"/>
    <path class="cls-1" d="M426.28,88.37h22.33v106.91h-22.33v-106.91Z"/>
    <path class="cls-1" d="M470.78,93.11c0-6.27,5.35-11.93,12.24-11.93s11.93,5.66,11.93,11.93c0,6.73-5.35,12.24-11.93,12.24s-12.24-5.51-12.24-12.24ZM471.7,116.21h22.33v79.07h-22.33v-79.07Z"/>
    <path class="cls-1" d="M512.84,155.67c0-22.48,19.73-41.29,43.28-41.29s42.98,18.81,42.98,41.29-19.58,41.45-42.98,41.45-43.28-18.96-43.28-41.45ZM577.84,155.67c0-12.24-9.94-22.48-21.72-22.48s-21.87,10.25-21.87,22.48,9.94,22.64,21.87,22.64,21.72-10.4,21.72-22.64Z"/>
    <path class="cls-1" d="M665.02,190.23c-4.59,4.13-11.78,6.88-18.2,6.88-13.92,0-23.71-9.94-23.71-24.17v-38.69h-10.86v-18.05h10.86v-21.72h21.41v21.72h17.13v18.05h-17.13v35.18c0,5.2,3.36,8.87,7.49,8.87,3.06,0,6.12-1.07,7.65-2.6l5.35,14.53Z"/>
  </g>
</svg>