<svg width="95" height="19" viewBox="0 0 95 19" fill="none" xmlns="http://www.w3.org/2000/svg">
<path d="M16.8115 18.801C14.8321 18.801 12.5934 18.1698 10.3981 16.348C9.78955 16.7458 9.13025 17.1466 8.41878 17.5488C8.06522 17.7587 6.41624 18.6249 4.37748 18.0127C2.5778 17.4725 1.10415 15.9898 0 13.6057L3.2458 12.0613C3.87612 13.4207 4.60642 14.2707 5.35846 14.5173C6.02211 14.7346 6.59157 14.4219 6.61476 14.4087L6.68431 14.3603L6.65243 14.3867C7.08859 14.1401 7.50735 13.8905 7.90873 13.6395C7.29724 12.5003 6.81762 10.8209 6.99585 8.42063C7.01614 8.04482 7.27551 4.36595 9.54757 2.37677C10.5836 1.46953 11.8805 1.05702 13.3063 1.16418C15.0306 1.29337 16.7579 2.82158 17.3157 4.95903C17.8128 6.86159 17.7432 10.2307 13.4005 14.0813C16.9462 16.4346 19.9269 14.2883 20.0689 14.1826L22.1873 17.1143C21.0716 17.9422 19.1169 18.801 16.81 18.801H16.8115ZM12.8484 4.77993C12.4644 4.77993 12.1645 4.89003 11.895 5.12638C11.0009 5.91031 10.6198 7.84223 10.5764 8.65551C10.4807 9.96059 10.6474 10.8649 10.8734 11.4741C12.9557 9.66111 13.8251 7.85691 13.925 6.32136C14.0265 4.77993 12.9165 4.77993 12.8484 4.77993Z" fill="white"></path>
<path d="M24.008 15.868C25.0892 15.868 25.9657 14.98 25.9657 13.8847C25.9657 12.7893 25.0892 11.9014 24.008 11.9014C22.9269 11.9014 22.0504 12.7893 22.0504 13.8847C22.0504 14.98 22.9269 15.868 24.008 15.868Z" fill="white"></path>
<path d="M42.5625 14.46L44.8389 16.8162C43.7131 18.0067 41.5337 18.8009 39.6732 18.8009C35.9029 18.8009 32.9657 15.9985 32.9657 12.0554C32.9657 8.11224 35.7811 5.38318 39.4776 5.38318C43.4435 5.38318 45.7692 8.43373 45.7692 13.2694H36.6375C37.0534 14.6582 38.1546 15.6006 39.6486 15.6006C40.6527 15.6006 41.8757 15.1294 42.5611 14.46H42.5625ZM36.6868 10.6651H42.3423C41.9989 9.39969 41.0686 8.582 39.6254 8.582C38.2792 8.582 37.1534 9.37621 36.6882 10.6651H36.6868Z" fill="white"></path>
<path d="M48.8055 1.16565H52.3803V18.5016H48.8055V1.16565Z" fill="white"></path>
<path d="M56.0986 1.16565H59.6734V18.5016H56.0986V1.16565Z" fill="white"></path>
<path d="M63.2208 1.93486C63.2208 0.917516 64.0772 0 65.1799 0C66.2826 0 67.0897 0.917516 67.0897 1.93486C67.0897 3.0256 66.2333 3.91963 65.1799 3.91963C64.1265 3.91963 63.2208 3.02707 63.2208 1.93486ZM63.3686 5.67979H66.9433V18.5015H63.3686V5.67979Z" fill="white"></path>
<path d="M69.9569 12.0788C69.9569 8.43374 73.1143 5.38171 76.8847 5.38171C80.655 5.38171 83.7631 8.43227 83.7631 12.0788C83.7631 15.7254 80.6304 18.7995 76.8847 18.7995C73.1389 18.7995 69.9569 15.7239 69.9569 12.0788ZM80.3608 12.0788C80.3608 10.0941 78.7698 8.43374 76.8847 8.43374C74.9995 8.43374 73.3838 10.0955 73.3838 12.0788C73.3838 14.0621 74.9749 15.7489 76.8847 15.7489C78.7945 15.7489 80.3608 14.0621 80.3608 12.0788Z" fill="white"></path>
<path d="M94.3141 17.6838C93.5794 18.3532 92.4289 18.7995 91.4001 18.7995C89.173 18.7995 87.6052 17.1876 87.6052 14.8813V8.60699H85.8663V5.67975H87.6052V2.15796H91.0321V5.67975H93.7736V8.60699H91.0321V14.3117C91.0321 15.1544 91.5711 15.7504 92.2319 15.7504C92.7216 15.7504 93.2114 15.5772 93.4563 15.3291L94.3127 17.6853L94.3141 17.6838Z" fill="white"></path>
</svg>